<?xml version="1.0" encoding="UTF-8"?>
<!DOCTYPE svg PUBLIC "-//W3C//DTD SVG 1.1//EN" "http://www.w3.org/Graphics/SVG/1.1/DTD/svg11.dtd">
<svg xmlns="http://www.w3.org/2000/svg" version="1.1" width="512px" height="512px" style="shape-rendering:geometricPrecision; text-rendering:geometricPrecision; image-rendering:optimizeQuality; fill-rule:evenodd; clip-rule:evenodd" xmlns:xlink="http://www.w3.org/1999/xlink">
<g><path style="opacity:0.975" fill="#000000" d="M 253.5,19.5 C 259.072,18.9896 264.405,19.8229 269.5,22C 301.667,54.1667 333.833,86.3333 366,118.5C 372.399,130.995 369.899,141.495 358.5,150C 350.899,155.115 342.899,155.782 334.5,152C 302,119.5 269.5,87 237,54.5C 233.405,46.6451 233.739,38.9785 238,31.5C 242.233,26.0772 247.4,22.0772 253.5,19.5 Z"/></g>
<g><path style="opacity:0.981" fill="#000000" d="M 219.5,76.5 C 222.893,76.0617 225.893,76.8951 228.5,79C 232.333,82.8333 236.167,86.6667 240,90.5C 242.064,87.7264 244.564,85.8931 247.5,85C 266.167,103.667 284.833,122.333 303.5,141C 301.316,143.016 299.316,145.183 297.5,147.5C 301.485,151.985 305.651,156.318 310,160.5C 312.704,163.999 313.037,167.666 311,171.5C 275.5,207 240,242.5 204.5,278C 201.167,280 197.833,280 194.5,278C 189.985,273.318 185.319,268.818 180.5,264.5C 177.516,266.984 174.682,269.65 172,272.5C 153.333,253.833 134.667,235.167 116,216.5C 117.578,212.886 120.078,209.719 123.5,207C 119,202.5 114.5,198 110,193.5C 109.21,190.366 109.543,187.366 111,184.5C 147.062,148.271 183.228,112.271 219.5,76.5 Z"/></g>
<g><path style="opacity:0.963" fill="#000000" d="M 69.5,203.5 C 76.1467,202.592 82.1467,204.092 87.5,208C 118.667,239.167 149.833,270.333 181,301.5C 188.614,316.821 184.781,328.654 169.5,337C 162.171,339.473 155.171,338.806 148.5,335C 117,303.5 85.5,272 54,240.5C 49.1437,233.55 48.477,226.217 52,218.5C 56.5271,211.794 62.3604,206.794 69.5,203.5 Z"/></g>
<g><path style="opacity:0.978" fill="#000000" d="M 284.5,216.5 C 349.419,269.913 413.919,323.913 478,378.5C 488.049,390.355 491.715,404.022 489,419.5C 482.579,442.257 467.579,454.257 444,455.5C 432.459,455.21 422.292,451.377 413.5,444C 359.667,380.167 305.833,316.333 252,252.5C 251.333,251.5 251.333,250.5 252,249.5C 263.035,238.632 273.869,227.632 284.5,216.5 Z"/></g>
<g><path style="opacity:0.912" fill="#000000" d="M 82.5,327.5 C 88.348,326.002 92.1813,328.002 94,333.5C 96.4228,343.614 98.5894,353.781 100.5,364C 99.2077,371.814 94.8744,374.148 87.5,371C 85.683,369.2 84.5163,367.034 84,364.5C 82.0229,354.78 79.8562,345.113 77.5,335.5C 77.7266,331.819 79.3933,329.152 82.5,327.5 Z"/></g>
<g><path style="opacity:0.908" fill="#000000" d="M 42.5,333.5 C 46.8394,332.846 50.6727,333.846 54,336.5C 59.6667,344.833 65.3333,353.167 71,361.5C 73.3749,371.127 69.5416,374.96 59.5,373C 52.2769,363.443 45.4436,353.609 39,343.5C 38.1822,339.469 39.3489,336.136 42.5,333.5 Z"/></g>
<g><path style="opacity:0.906" fill="#000000" d="M 26.5,367.5 C 29.7935,367.259 32.7935,368.092 35.5,370C 43.3655,375.364 51.3655,380.53 59.5,385.5C 64.6718,392.823 63.0051,397.823 54.5,400.5C 43.5807,395.371 33.2474,389.205 23.5,382C 20.0839,376.081 21.0839,371.247 26.5,367.5 Z"/></g>
<g><path style="opacity:0.978" fill="#000000" d="M 83.5,400.5 C 145.834,400.333 208.168,400.5 270.5,401C 277.909,403.408 283.076,408.242 286,415.5C 287.029,421.123 287.529,426.79 287.5,432.5C 213.833,432.5 140.167,432.5 66.5,432.5C 64.377,417.4 70.0436,406.733 83.5,400.5 Z"/></g>
<g><path style="opacity:0.989" fill="#000000" d="M 56.5,447.5 C 136.501,447.333 216.501,447.5 296.5,448C 303.181,450.013 308.014,454.18 311,460.5C 312.399,470.768 312.899,481.102 312.5,491.5C 222.167,491.5 131.833,491.5 41.5,491.5C 41.0738,481.088 41.5738,470.754 43,460.5C 46.0762,454.589 50.5762,450.255 56.5,447.5 Z"/></g>
</svg>
