<?xml version="1.0" encoding="UTF-8"?>
<!DOCTYPE svg PUBLIC "-//W3C//DTD SVG 1.1//EN" "http://www.w3.org/Graphics/SVG/1.1/DTD/svg11.dtd">
<svg xmlns="http://www.w3.org/2000/svg" version="1.1" width="512px" height="512px" style="shape-rendering:geometricPrecision; text-rendering:geometricPrecision; image-rendering:optimizeQuality; fill-rule:evenodd; clip-rule:evenodd" xmlns:xlink="http://www.w3.org/1999/xlink">
<g><path style="opacity:0.986" fill="#000000" d="M 261.5,-0.5 C 266.167,-0.5 270.833,-0.5 275.5,-0.5C 277.741,0.620727 280.075,1.78739 282.5,3C 320.667,41.1667 358.833,79.3333 397,117.5C 405.909,134.435 402.076,147.602 385.5,157C 375.227,160.332 366.06,158.498 358,151.5C 340.667,168.833 323.333,186.167 306,203.5C 305.333,204.167 305.333,204.833 306,205.5C 373,272.5 440,339.5 507,406.5C 508.546,409.592 510.046,412.592 511.5,415.5C 511.5,420.5 511.5,425.5 511.5,430.5C 506.417,445.055 496.084,451.555 480.5,450C 476.462,449.101 472.795,447.434 469.5,445C 402.333,377.833 335.167,310.667 268,243.5C 250.667,260.833 233.333,278.167 216,295.5C 216.747,297.976 218.081,300.309 220,302.5C 225.854,318.953 221.021,331.119 205.5,339C 196.485,341.8 188.152,340.466 180.5,335C 144.471,299.304 108.138,263.97 71.5,229C 57.6723,215.578 57.0056,201.578 69.5,187C 82.4622,177.953 94.9622,178.453 107,188.5C 154.138,139.695 201.638,91.1952 249.5,43C 240.774,31.8868 240.274,20.3868 248,8.5C 251.882,4.42933 256.382,1.42933 261.5,-0.5 Z"/></g>
<g><path style="opacity:0.984" fill="#000000" d="M -0.5,459.5 C 110.5,459.5 221.5,459.5 332.5,459.5C 332.5,476.833 332.5,494.167 332.5,511.5C 221.5,511.5 110.5,511.5 -0.5,511.5C -0.5,494.167 -0.5,476.833 -0.5,459.5 Z"/></g>
</svg>
