<?xml version="1.0" encoding="UTF-8"?>
<!DOCTYPE svg PUBLIC "-//W3C//DTD SVG 1.1//EN" "http://www.w3.org/Graphics/SVG/1.1/DTD/svg11.dtd">
<svg xmlns="http://www.w3.org/2000/svg" version="1.1" width="512px" height="512px" style="shape-rendering:geometricPrecision; text-rendering:geometricPrecision; image-rendering:optimizeQuality; fill-rule:evenodd; clip-rule:evenodd" xmlns:xlink="http://www.w3.org/1999/xlink">
<g><path style="opacity:0.955" fill="#000000" d="M 117.5,-0.5 C 132.833,-0.5 148.167,-0.5 163.5,-0.5C 167.925,3.29874 168.591,7.79874 165.5,13C 152.261,14.2972 138.928,14.9639 125.5,15C 119.352,15.4764 115.518,18.643 114,24.5C 113.014,75.2251 113.347,125.892 115,176.5C 117.412,180.296 120.912,182.462 125.5,183C 212.167,183.667 298.833,183.667 385.5,183C 391.648,182.524 395.482,179.357 397,173.5C 397.986,122.775 397.653,72.1082 396,21.5C 393.588,17.7044 390.088,15.5377 385.5,15C 319.5,14.6667 253.5,14.3333 187.5,14C 182.232,9.17064 182.232,4.33731 187.5,-0.5C 256.167,-0.5 324.833,-0.5 393.5,-0.5C 403.993,3.16655 410.493,10.4999 413,21.5C 413.667,73.1667 413.667,124.833 413,176.5C 410.683,187.483 404.183,194.649 393.5,198C 360.168,198.5 326.835,198.667 293.5,198.5C 293.333,209.838 293.5,221.172 294,232.5C 306.544,221.585 320.044,220.085 334.5,228C 345.64,239.055 347.473,251.555 340,265.5C 337.982,267.35 336.149,269.35 334.5,271.5C 344.745,280.991 347.245,292.324 342,305.5C 339.659,308.671 337.159,311.671 334.5,314.5C 344.141,323.269 346.974,333.936 343,346.5C 341.021,350.956 338.187,354.79 334.5,358C 343.037,365.277 346.204,374.444 344,385.5C 343.144,389.544 341.478,393.211 339,396.5C 332.924,401.584 326.591,406.251 320,410.5C 319.108,416.278 317.108,421.611 314,426.5C 313.5,439.162 313.333,451.829 313.5,464.5C 317.514,464.334 321.514,464.501 325.5,465C 326.667,466.167 327.833,467.333 329,468.5C 329.667,481.167 329.667,493.833 329,506.5C 328.003,508.323 326.836,509.99 325.5,511.5C 318.167,511.5 310.833,511.5 303.5,511.5C 298.232,506.663 298.232,501.829 303.5,497C 306.817,496.502 310.15,496.335 313.5,496.5C 313.5,490.833 313.5,485.167 313.5,479.5C 274.833,479.5 236.167,479.5 197.5,479.5C 197.5,485.167 197.5,490.833 197.5,496.5C 224.835,496.333 252.169,496.5 279.5,497C 282.366,498.393 283.699,500.726 283.5,504C 283.57,507.366 282.237,509.866 279.5,511.5C 248.167,511.5 216.833,511.5 185.5,511.5C 184.542,510.038 183.376,508.705 182,507.5C 181.333,494.5 181.333,481.5 182,468.5C 184.195,465.037 187.361,463.704 191.5,464.5C 191.666,457.492 191.5,450.492 191,443.5C 164.339,425.056 154.172,399.723 160.5,367.5C 164.833,363.5 169.167,363.5 173.5,367.5C 174.333,377.139 175.166,386.806 176,396.5C 181.566,418.874 195.732,432.041 218.5,436C 237.167,436.667 255.833,436.667 274.5,436C 283.607,434.538 290.94,430.205 296.5,423C 279.442,429.361 266.609,424.528 258,408.5C 256.661,403.264 256.161,397.93 256.5,392.5C 244.829,392.667 233.162,392.5 221.5,392C 220.333,390.833 219.167,389.667 218,388.5C 217.833,369.824 217.333,351.158 216.5,332.5C 208.124,328.097 202.291,321.431 199,312.5C 197.715,292.551 197.048,272.551 197,252.5C 195.113,242.987 189.613,239.82 180.5,243C 177.246,245.342 175.412,248.509 175,252.5C 174.667,283.5 174.333,314.5 174,345.5C 169.333,350.833 164.667,350.833 160,345.5C 159.333,311.833 159.333,278.167 160,244.5C 168.9,225.811 182.734,220.978 201.5,230C 206.88,233.938 210.38,239.104 212,245.5C 212.333,263.5 212.667,281.5 213,299.5C 213.144,303.931 214.477,307.931 217,311.5C 217.5,273.835 217.667,236.168 217.5,198.5C 184.165,198.667 150.832,198.5 117.5,198C 106.817,194.649 100.317,187.483 98,176.5C 97.3333,124.833 97.3333,73.1667 98,21.5C 100.507,10.4999 107.007,3.16655 117.5,-0.5 Z M 176.5,61.5 C 184.238,61.1439 191.905,61.6439 199.5,63C 208.43,67.8847 210.263,74.718 205,83.5C 203.421,85.0412 201.587,86.2078 199.5,87C 191.841,87.4997 184.174,87.6664 176.5,87.5C 176.5,78.8333 176.5,70.1667 176.5,61.5 Z M 289.5,64.5 C 318.151,59.6406 333.151,71.6406 334.5,100.5C 333.087,129.24 318.087,141.573 289.5,137.5C 289.5,113.167 289.5,88.8333 289.5,64.5 Z M 176.5,103.5 C 186.224,103.141 195.891,103.641 205.5,105C 216.297,111.057 218.797,119.557 213,130.5C 211.062,133.106 208.562,134.939 205.5,136C 195.891,137.359 186.224,137.859 176.5,137.5C 176.5,126.167 176.5,114.833 176.5,103.5 Z M 233.5,198.5 C 248.167,198.5 262.833,198.5 277.5,198.5C 277.667,212.837 277.5,227.171 277,241.5C 258.64,249.239 252.64,262.572 259,281.5C 261.034,284.909 263.534,287.909 266.5,290.5C 255.824,300.928 253.657,312.928 260,326.5C 261.793,329.295 263.96,331.795 266.5,334C 255.36,345.055 253.527,357.555 261,371.5C 262.833,373.333 264.667,375.167 266.5,377C 255.505,377.5 244.505,377.667 233.5,377.5C 233.5,317.833 233.5,258.167 233.5,198.5 Z M 316.5,238.5 C 325.625,239.409 329.458,244.409 328,253.5C 326.878,255.624 325.378,257.457 323.5,259C 311.5,265.667 299.5,272.333 287.5,279C 276.612,280.976 271.779,276.476 273,265.5C 274.122,263.376 275.622,261.543 277.5,260C 290.594,252.791 303.594,245.624 316.5,238.5 Z M 313.5,282.5 C 325.762,281.376 330.262,286.709 327,298.5C 314.412,307.215 301.245,315.048 287.5,322C 280.719,324.292 275.886,322.125 273,315.5C 271.534,310.265 273.034,306.099 277.5,303C 289.725,296.392 301.725,289.559 313.5,282.5 Z M 314.5,325.5 C 327.567,326.137 331.233,332.304 325.5,344C 313.167,351 300.833,358 288.5,365C 277.67,367.835 272.503,363.669 273,352.5C 273.346,350.152 274.513,348.319 276.5,347C 289.391,340.059 302.058,332.892 314.5,325.5 Z M 314.5,368.5 C 324.337,368.168 328.837,372.835 328,382.5C 327.208,384.587 326.041,386.421 324.5,388C 311.833,395 299.167,402 286.5,409C 278.5,410.333 273.833,407 272.5,399C 272.657,396.019 273.657,393.352 275.5,391C 288.563,383.473 301.563,375.973 314.5,368.5 Z M 296.5,444.5 C 297.491,450.979 297.824,457.646 297.5,464.5C 267.5,464.5 237.5,464.5 207.5,464.5C 207.5,459.833 207.5,455.167 207.5,450.5C 210.487,450.998 213.487,451.498 216.5,452C 236.5,452.667 256.5,452.667 276.5,452C 283.888,451.152 290.554,448.652 296.5,444.5 Z"/></g>
<g><path style="opacity:0.94" fill="#000000" d="M 164.5,46.5 C 177.171,46.3334 189.838,46.5001 202.5,47C 219.833,53.1584 226.666,65.3251 223,83.5C 221.893,86.8792 220.393,90.0459 218.5,93C 236.311,110.086 236.978,127.753 220.5,146C 213.354,151.121 205.354,153.455 196.5,153C 185.76,153.928 175.093,153.595 164.5,152C 162.951,150.786 161.785,149.286 161,147.5C 160.333,115.5 160.333,83.5 161,51.5C 161.997,49.6769 163.164,48.0103 164.5,46.5 Z M 176.5,61.5 C 176.5,70.1667 176.5,78.8333 176.5,87.5C 184.174,87.6664 191.841,87.4997 199.5,87C 201.587,86.2078 203.421,85.0412 205,83.5C 210.263,74.718 208.43,67.8847 199.5,63C 191.905,61.6439 184.238,61.1439 176.5,61.5 Z M 176.5,103.5 C 176.5,114.833 176.5,126.167 176.5,137.5C 186.224,137.859 195.891,137.359 205.5,136C 208.562,134.939 211.062,133.106 213,130.5C 218.797,119.557 216.297,111.057 205.5,105C 195.891,103.641 186.224,103.141 176.5,103.5 Z"/></g>
<g><path style="opacity:0.929" fill="#000000" d="M 249.5,46.5 C 254.742,45.2706 258.575,46.9372 261,51.5C 261.667,83.5 261.667,115.5 261,147.5C 256.439,154.955 251.439,155.288 246,148.5C 245.333,115.833 245.333,83.1667 246,50.5C 246.69,48.6498 247.856,47.3164 249.5,46.5 Z"/></g>
<g><path style="opacity:0.931" fill="#000000" d="M 279.5,48.5 C 332.963,42.1282 355.797,65.4615 348,118.5C 343.564,135.935 332.731,147.102 315.5,152C 306.16,152.389 296.827,152.889 287.5,153.5C 281.546,154.47 277.046,152.47 274,147.5C 273.333,116.167 273.333,84.8333 274,53.5C 275.107,50.887 276.94,49.2203 279.5,48.5 Z M 289.5,64.5 C 289.5,88.8333 289.5,113.167 289.5,137.5C 318.087,141.573 333.087,129.24 334.5,100.5C 333.151,71.6406 318.151,59.6406 289.5,64.5 Z"/></g>
</svg>
