<?xml version="1.0" encoding="UTF-8"?>
<!DOCTYPE svg PUBLIC "-//W3C//DTD SVG 1.1//EN" "http://www.w3.org/Graphics/SVG/1.1/DTD/svg11.dtd">
<svg xmlns="http://www.w3.org/2000/svg" version="1.1" width="200px" height="200px" style="shape-rendering:geometricPrecision; text-rendering:geometricPrecision; image-rendering:optimizeQuality; fill-rule:evenodd; clip-rule:evenodd" xmlns:xlink="http://www.w3.org/1999/xlink">
<g><path style="opacity:0.907" fill="#000000" d="M 12.5,9.5 C 56.5013,9.33334 100.501,9.50001 144.5,10C 145,10.5 145.5,11 146,11.5C 146.499,16.1548 146.666,20.8215 146.5,25.5C 143.833,25.5 141.167,25.5 138.5,25.5C 138.5,22.8333 138.5,20.1667 138.5,17.5C 98.5,17.5 58.5,17.5 18.5,17.5C 18.5,72.1667 18.5,126.833 18.5,181.5C 58.5,181.5 98.5,181.5 138.5,181.5C 138.5,150.5 138.5,119.5 138.5,88.5C 141.167,88.5 143.833,88.5 146.5,88.5C 146.833,121.84 146.5,155.173 145.5,188.5C 100.833,189.833 56.1667,189.833 11.5,188.5C 11.1667,158.833 10.8333,129.167 10.5,99.5C 10.5077,69.2866 11.1744,39.2866 12.5,9.5 Z M 72.5,120.5 C 75.8123,123.146 78.8123,126.146 81.5,129.5C 80.3067,131.527 78.64,133.027 76.5,134C 72.578,135.647 68.578,136.647 64.5,137C 66.1312,130.906 68.7979,125.406 72.5,120.5 Z"/></g>
<g><path style="opacity:0.856" fill="#000000" d="M 167.5,9.5 C 168.873,9.34332 170.207,9.50999 171.5,10C 177.095,15.0508 182.595,20.2175 188,25.5C 188.667,27.5 188.667,29.5 188,31.5C 183.586,36.4196 178.753,40.7529 173.5,44.5C 165.572,39.5742 158.906,33.2409 153.5,25.5C 157.817,19.8508 162.483,14.5175 167.5,9.5 Z M 168.5,20.5 C 172.108,22.7699 175.442,25.4366 178.5,28.5C 177.167,30.5 175.5,32.1667 173.5,33.5C 169.88,31.5472 166.88,28.8805 164.5,25.5C 165.857,23.8144 167.19,22.1477 168.5,20.5 Z"/></g>
<g><path style="opacity:0.851" fill="#000000" d="M 148.5,29.5 C 150.655,29.372 152.655,29.872 154.5,31C 159.667,36.1667 164.833,41.3333 170,46.5C 170.52,48.2889 170.187,49.9556 169,51.5C 145.136,75.6967 121.636,100.197 98.5,125C 96.8333,125.667 95.1667,125.667 93.5,125C 87.9046,119.949 82.4046,114.782 77,109.5C 76.3333,107.5 76.3333,105.5 77,103.5C 101.037,78.9646 124.87,54.2979 148.5,29.5 Z M 150.5,39.5 C 154.373,42.1859 157.206,45.5193 159,49.5C 138.167,71 117.333,92.5 96.5,114C 94.0245,113.253 91.6911,111.919 89.5,110C 87.6707,108.887 86.8374,107.387 87,105.5C 108.37,83.6312 129.537,61.6312 150.5,39.5 Z"/></g>
<g><path style="opacity:0.885" fill="#000000" d="M 34.5,31.5 C 65.5,31.5 96.5,31.5 127.5,31.5C 127.5,34.1667 127.5,36.8333 127.5,39.5C 96.5,39.5 65.5,39.5 34.5,39.5C 34.5,36.8333 34.5,34.1667 34.5,31.5 Z"/></g>
<g><path style="opacity:0.891" fill="#000000" d="M 34.5,52.5 C 58.1667,52.5 81.8333,52.5 105.5,52.5C 105.5,55.1667 105.5,57.8333 105.5,60.5C 81.8333,60.5 58.1667,60.5 34.5,60.5C 34.5,57.8333 34.5,55.1667 34.5,52.5 Z"/></g>
<g><path style="opacity:0.877" fill="#000000" d="M 34.5,74.5 C 51.1667,74.5 67.8333,74.5 84.5,74.5C 84.5,77.1667 84.5,79.8333 84.5,82.5C 67.8333,82.5 51.1667,82.5 34.5,82.5C 34.5,79.8333 34.5,77.1667 34.5,74.5 Z"/></g>
<g><path style="opacity:0.876" fill="#000000" d="M 34.5,95.5 C 43.8333,95.5 53.1667,95.5 62.5,95.5C 62.5,98.1667 62.5,100.833 62.5,103.5C 53.1667,103.5 43.8333,103.5 34.5,103.5C 34.5,100.833 34.5,98.1667 34.5,95.5 Z"/></g>
<g><path style="opacity:0.864" fill="#000000" d="M 69.5,110.5 C 71.5273,110.338 73.5273,110.505 75.5,111C 81.5452,116.71 87.2118,122.71 92.5,129C 90.2703,133.236 87.2703,136.903 83.5,140C 75.0773,143.363 66.5773,146.53 58,149.5C 54.3317,148.496 52.9984,146.163 54,142.5C 56.3333,135.5 58.6667,128.5 61,121.5C 63.3582,117.442 66.1916,113.775 69.5,110.5 Z M 72.5,120.5 C 68.7979,125.406 66.1312,130.906 64.5,137C 68.578,136.647 72.578,135.647 76.5,134C 78.64,133.027 80.3067,131.527 81.5,129.5C 78.8123,126.146 75.8123,123.146 72.5,120.5 Z"/></g>
<g><path style="opacity:0.841" fill="#000000" d="M 34.5,116.5 C 38.5,116.5 42.5,116.5 46.5,116.5C 46.5,119.167 46.5,121.833 46.5,124.5C 42.5,124.5 38.5,124.5 34.5,124.5C 34.5,121.833 34.5,119.167 34.5,116.5 Z"/></g>
<g><path style="opacity:0.72" fill="#000000" d="M 34.5,138.5 C 36.8333,138.5 39.1667,138.5 41.5,138.5C 41.5,141.167 41.5,143.833 41.5,146.5C 39.1667,146.5 36.8333,146.5 34.5,146.5C 34.5,143.833 34.5,141.167 34.5,138.5 Z"/></g>
</svg>
