<?xml version="1.0" encoding="UTF-8"?>
<!DOCTYPE svg PUBLIC "-//W3C//DTD SVG 1.1//EN" "http://www.w3.org/Graphics/SVG/1.1/DTD/svg11.dtd">
<svg xmlns="http://www.w3.org/2000/svg" version="1.1" width="512px" height="512px" style="shape-rendering:geometricPrecision; text-rendering:geometricPrecision; image-rendering:optimizeQuality; fill-rule:evenodd; clip-rule:evenodd" xmlns:xlink="http://www.w3.org/1999/xlink">
<g><path style="opacity:0.994" fill="#000000" d="M 511.5,157.5 C 511.5,168.5 511.5,179.5 511.5,190.5C 506.202,222.764 493.035,251.431 472,276.5C 407.5,343.667 343,410.833 278.5,478C 261.675,488.51 245.341,487.844 229.5,476C 165.365,408.197 100.865,340.697 36,273.5C 16.2068,249.915 4.04018,222.915 -0.5,192.5C -0.5,181.167 -0.5,169.833 -0.5,158.5C 9.71184,98.9236 42.7118,57.4236 98.5,34C 154.047,16.4422 203.714,26.7755 247.5,65C 252.5,68.3333 257.5,68.3333 262.5,65C 313.657,21.7885 369.657,14.4552 430.5,43C 476.047,68.0468 503.047,106.214 511.5,157.5 Z"/></g>
</svg>
