<?xml version="1.0" encoding="UTF-8"?>
<!DOCTYPE svg PUBLIC "-//W3C//DTD SVG 1.1//EN" "http://www.w3.org/Graphics/SVG/1.1/DTD/svg11.dtd">
<svg xmlns="http://www.w3.org/2000/svg" version="1.1" width="512px" height="512px" style="shape-rendering:geometricPrecision; text-rendering:geometricPrecision; image-rendering:optimizeQuality; fill-rule:evenodd; clip-rule:evenodd" xmlns:xlink="http://www.w3.org/1999/xlink">
<g><path style="opacity:0.994" fill="#000000" d="M 233.5,-0.5 C 248.167,-0.5 262.833,-0.5 277.5,-0.5C 377.805,11.9821 449.305,63.9821 492,155.5C 502.297,180.687 508.797,206.687 511.5,233.5C 511.5,248.167 511.5,262.833 511.5,277.5C 499.018,377.805 447.018,449.305 355.5,492C 330.313,502.297 304.313,508.797 277.5,511.5C 262.833,511.5 248.167,511.5 233.5,511.5C 133.195,499.018 61.6947,447.018 19,355.5C 8.70332,330.313 2.20332,304.313 -0.5,277.5C -0.5,262.833 -0.5,248.167 -0.5,233.5C 11.9821,133.195 63.9821,61.6947 155.5,19C 180.687,8.70332 206.687,2.20332 233.5,-0.5 Z M 248.5,128.5 C 274.977,127.476 287.477,140.143 286,166.5C 280.207,184.822 267.707,192.655 248.5,190C 230.178,184.207 222.345,171.707 225,152.5C 228.349,139.985 236.182,131.985 248.5,128.5 Z M 207.5,223.5 C 228.836,223.333 250.169,223.5 271.5,224C 280.667,225.167 285.833,230.333 287,239.5C 287.5,276.832 287.667,314.165 287.5,351.5C 292.844,351.334 298.177,351.501 303.5,352C 317.344,355.187 321.51,363.354 316,376.5C 312.736,380.382 308.57,382.549 303.5,383C 271.5,383.667 239.5,383.667 207.5,383C 193.656,379.813 189.49,371.646 195,358.5C 196.938,355.894 199.438,354.061 202.5,353C 209.437,351.712 216.437,351.212 223.5,351.5C 223.5,319.5 223.5,287.5 223.5,255.5C 216.437,255.788 209.437,255.288 202.5,254C 194.129,250.091 190.963,243.591 193,234.5C 195.821,228.023 200.655,224.356 207.5,223.5 Z"/></g>
</svg>
