<?xml version="1.0" standalone="no"?>
<!DOCTYPE svg PUBLIC "-//W3C//DTD SVG 20010904//EN"
 "http://www.w3.org/TR/2001/REC-SVG-20010904/DTD/svg10.dtd">
<svg version="1.0" xmlns="http://www.w3.org/2000/svg"
 width="500.000000pt" height="500.000000pt" viewBox="0 0 500.000000 500.000000"
 preserveAspectRatio="xMidYMid meet">

<g transform="translate(0.000000,500.000000) scale(0.100000,-0.100000)"
fill="#000000" stroke="none">
<path d="M0 2500 l0 -2500 2500 0 2500 0 0 2500 0 2500 -2500 0 -2500 0 0
-2500z m3898 1584 c42 -29 25 -54 -89 -129 -159 -105 -210 -135 -225 -135 -23
0 -47 46 -36 67 12 21 290 210 312 212 9 0 26 -6 38 -15z m-1622 -32 c68 -24
108 -57 139 -116 81 -160 -46 -357 -223 -344 -78 5 -145 40 -181 92 -100 145
-37 326 130 374 50 15 78 13 135 -6z m1658 -101 c3 -5 -1 -12 -9 -15 -24 -9
142 -255 173 -256 12 0 22 -4 22 -10 0 -5 -58 -47 -129 -93 -70 -47 -131 -90
-135 -96 -7 -10 -46 -16 -46 -6 0 2 5 15 11 28 9 20 2 37 -68 140 -48 72 -84
116 -93 114 -8 -1 -15 5 -15 12 0 8 43 42 95 74 52 33 111 72 130 88 36 29 55
35 64 20z m-217 -313 c35 -33 29 -54 -29 -91 -206 -131 -230 -150 -248 -191
-14 -32 -31 -49 -81 -78 -68 -41 -84 -44 -122 -27 -29 13 -35 11 -206 -96
l-122 -76 -34 38 -34 38 22 17 c12 10 25 18 29 18 15 0 225 130 242 149 22 24
15 51 -13 51 -10 0 -72 -18 -138 -39 -208 -69 -264 -85 -271 -75 -13 19 -161
143 -231 194 -39 28 -71 58 -71 66 0 17 4 17 54 3 93 -26 160 -31 486 -38 225
-5 365 -13 401 -21 l57 -14 68 50 c127 91 205 144 212 144 3 0 16 -10 29 -22z
m491 -31 c6 -5 12 -22 12 -37 0 -25 -17 -39 -162 -135 -158 -105 -163 -107
-187 -92 -32 19 -38 57 -14 79 10 9 82 59 161 112 141 93 156 99 190 73z
m-2228 -41 c19 -13 89 -45 155 -71 256 -101 397 -193 618 -404 56 -53 177
-193 177 -205 0 -3 -30 -2 -66 1 -60 6 -66 4 -63 -12 4 -20 14 -24 149 -55
152 -35 474 -191 705 -341 96 -61 125 -95 125 -141 0 -42 -197 -798 -211 -812
-3 -4 -25 1 -49 9 -23 8 -44 15 -46 15 -2 0 -4 -22 -4 -49 0 -26 -9 -77 -20
-111 -23 -71 -26 -115 -8 -126 7 -4 35 -13 63 -19 46 -11 50 -14 55 -46 l5
-34 361 0 c372 0 394 -2 394 -40 0 -39 32 -38 -1702 -37 -1605 0 -1672 1
-1685 18 -42 57 9 66 349 61 147 -2 273 0 280 5 10 7 9 12 -7 26 -50 44 -59
62 -64 135 -6 70 -7 72 -35 77 -26 4 -31 11 -42 60 -7 30 -13 71 -14 91 0 40
13 48 127 84 30 9 54 24 58 33 2 10 40 35 82 56 43 21 159 84 258 139 169 96
320 166 356 167 21 0 39 20 32 36 -3 8 -13 14 -23 14 -27 0 -35 18 -17 38 42
48 137 290 153 390 4 23 10 42 15 42 5 0 9 -4 9 -9 0 -5 25 -34 55 -64 56 -56
172 -122 262 -148 l41 -12 -46 -64 c-26 -35 -94 -125 -152 -201 -58 -75 -115
-151 -128 -168 -12 -18 -61 -56 -109 -86 -352 -219 -466 -299 -534 -376 l-40
-45 -42 39 c-23 21 -44 44 -46 49 -3 6 -10 -37 -17 -95 -6 -58 -10 -108 -7
-112 2 -5 15 -8 28 -8 13 0 46 -5 74 -11 48 -10 50 -12 53 -47 l3 -37 753 -2
c770 -2 789 -1 732 35 -30 19 -60 86 -61 139 -2 73 -11 99 -36 95 -17 -2 -29
10 -57 58 -20 34 -36 69 -36 79 0 20 50 74 101 108 64 42 107 149 149 368 11
61 23 120 25 132 3 12 17 35 31 53 15 17 25 32 23 34 -2 2 -40 11 -84 21 -105
23 -533 140 -610 167 -178 62 -239 118 -326 296 -33 68 -76 141 -96 163 -45
50 -144 119 -236 166 -40 19 -77 42 -83 51 -9 12 -17 13 -50 2 -49 -16 -78
-42 -170 -157 -142 -177 -382 -412 -482 -470 -58 -34 -234 -83 -299 -83 -42 0
-53 3 -58 19 -3 11 -15 23 -26 26 -21 7 -25 37 -6 53 6 6 58 34 115 63 57 28
100 55 95 59 -4 4 -24 13 -44 19 -45 14 -82 52 -73 74 8 21 8 21 75 -3 87 -30
187 -43 221 -29 19 8 64 59 127 143 169 226 242 348 295 494 40 112 53 133
119 194 34 32 64 58 67 58 3 0 21 -11 40 -24z m333 -741 c9 -20 17 -39 17 -44
0 -11 -214 -131 -234 -131 -18 0 -46 37 -46 61 0 9 7 23 16 30 23 19 206 118
220 118 6 1 18 -15 27 -34z"/>
</g>
</svg>
