<?xml version="1.0" encoding="UTF-8"?>
<!DOCTYPE svg PUBLIC "-//W3C//DTD SVG 1.1//EN" "http://www.w3.org/Graphics/SVG/1.1/DTD/svg11.dtd">
<svg xmlns="http://www.w3.org/2000/svg" version="1.1" width="512px" height="512px" style="shape-rendering:geometricPrecision; text-rendering:geometricPrecision; image-rendering:optimizeQuality; fill-rule:evenodd; clip-rule:evenodd" xmlns:xlink="http://www.w3.org/1999/xlink">
<g><path style="opacity:0.989" fill="#000000" d="M 368.5,-0.5 C 378.167,-0.5 387.833,-0.5 397.5,-0.5C 441.88,7.37161 471.38,32.7049 486,75.5C 497.829,126.37 482.662,166.87 440.5,197C 396.74,221.057 354.74,218.39 314.5,189C 276.743,153.465 266.91,111.299 285,62.5C 302.191,27.3283 330.024,6.32833 368.5,-0.5 Z"/></g>
<g><path style="opacity:0.993" fill="#000000" d="M 224.5,41.5 C 232.616,41.0613 240.616,41.728 248.5,43.5C 226.056,95.6636 230.556,145.33 262,192.5C 292.706,232.522 333.372,253.856 384,256.5C 387.073,300.982 405.739,337.315 440,365.5C 449.567,380.323 449.9,395.323 441,410.5C 434.273,418.612 425.773,423.779 415.5,426C 294.5,426.667 173.5,426.667 52.5,426C 28.1668,419.983 17.6668,404.483 21,379.5C 22.6178,372.928 25.7844,367.261 30.5,362.5C 64.9326,333.631 82.7659,296.631 84,251.5C 84.0695,223.139 84.7361,194.806 86,166.5C 98.6472,105.851 134.481,66.0175 193.5,47C 203.864,44.4965 214.197,42.6631 224.5,41.5 Z"/></g>
<g><path style="opacity:0.983" fill="#000000" d="M 246.5,511.5 C 238.167,511.5 229.833,511.5 221.5,511.5C 186.457,503.962 164.124,482.795 154.5,448C 207.166,447.5 259.832,447.333 312.5,447.5C 303.936,482.731 281.936,504.065 246.5,511.5 Z"/></g>
</svg>
